<?xml version="1.0" standalone="no"?>
<!DOCTYPE svg PUBLIC "-//W3C//DTD SVG 20010904//EN"
 "http://www.w3.org/TR/2001/REC-SVG-20010904/DTD/svg10.dtd">
<svg version="1.0" xmlns="http://www.w3.org/2000/svg"
 width="1500.000000pt" height="1500.000000pt" viewBox="0 0 1500.000000 1500.000000"
 preserveAspectRatio="xMidYMid meet">

<g transform="translate(0.000000,1500.000000) scale(0.100000,-0.100000)"
fill="#000000" stroke="none">
  <style>
    path { fill: #000000; }
    @media (prefers-color-scheme: dark) {
      path { fill: #ffffff; }
    }
  </style>
<path d="M7690 14314 c0 -5 58 -155 129 -334 l129 -325 -33 -33 c-88 -88 -218
-302 -337 -550 -109 -230 -157 -384 -204 -660 -13 -80 -26 -147 -27 -149 -2
-1 -48 -7 -103 -13 -299 -32 -593 -117 -870 -250 l-103 -50 -48 21 c-82 35
-236 86 -553 185 l-304 95 -18 -23 c-75 -98 -175 -674 -263 -1523 -18 -179
-33 -274 -59 -376 -60 -234 -71 -332 -71 -624 0 -296 11 -391 75 -640 86 -337
242 -656 458 -935 78 -100 281 -311 368 -382 l61 -49 -184 -307 c-549 -914
-880 -1560 -1054 -2057 -28 -82 -72 -202 -96 -265 -90 -231 -87 -220 -87 -390
-1 -150 1 -158 31 -236 77 -202 215 -340 415 -417 80 -31 88 -32 238 -32 150
0 158 1 238 32 108 41 209 109 279 188 l57 63 65 -60 c74 -68 198 -152 284
-194 34 -17 56 -33 53 -41 -5 -12 -109 -417 -236 -916 -59 -230 -67 -254 -112
-325 -61 -96 -88 -169 -95 -252 -23 -279 221 -530 601 -617 97 -22 345 -22
442 0 256 58 462 197 548 367 45 91 59 161 51 258 -3 42 -8 337 -11 655 l-5
577 156 0 156 0 -5 -577 c-3 -318 -8 -613 -11 -655 -8 -97 6 -167 51 -258 86
-170 292 -309 548 -367 97 -22 345 -22 442 0 380 87 624 338 601 617 -7 83
-34 156 -95 252 -45 71 -53 95 -112 325 -127 499 -231 904 -236 916 -3 8 19
24 53 41 86 42 210 126 284 194 l65 60 57 -63 c70 -79 171 -147 279 -188 80
-31 88 -32 238 -32 150 0 158 1 238 32 200 77 338 215 415 417 30 78 32 86 31
236 0 170 3 159 -87 390 -24 63 -68 183 -96 265 -173 496 -498 1131 -1049
2049 l-185 308 49 41 c27 23 93 84 148 137 404 391 664 904 753 1487 21 139
24 526 5 663 -18 124 -58 316 -83 393 -12 38 -31 170 -50 342 -93 865 -182
1376 -257 1473 l-18 23 -304 -95 c-317 -99 -471 -150 -553 -185 l-48 -21 -87
44 c-171 86 -401 166 -598 210 -94 21 -264 46 -311 46 -69 0 -71 7 -44 112
104 410 338 719 606 800 39 11 75 25 81 30 8 5 33 -5 70 -30 105 -70 326 -203
330 -199 2 2 -3 44 -12 93 -18 101 -23 130 -59 339 -14 83 -27 156 -30 163 -3
7 66 125 152 263 85 137 153 252 151 255 -3 2 -141 -58 -308 -135 l-302 -140
-315 247 c-353 277 -353 278 -353 266z m515 -525 c91 -74 129 -93 173 -86 18
4 97 36 174 72 77 37 142 65 143 63 2 -2 -27 -56 -66 -120 l-70 -115 11 -94
c6 -52 14 -110 19 -129 14 -52 40 -204 36 -208 -4 -4 -145 79 -151 90 -3 4 -1
8 3 8 5 0 -1 55 -12 123 l-21 122 63 103 c35 57 60 102 55 100 -5 -1 -62 -27
-125 -57 l-117 -54 -126 102 c-69 56 -128 101 -130 98 -2 -2 12 -43 31 -92 19
-49 35 -93 35 -99 0 -12 -99 95 -100 109 0 10 -61 166 -91 233 -10 23 -19 45
-19 47 0 6 185 -134 285 -216z m46 -191 c54 -43 82 -47 139 -18 22 11 40 19
40 17 0 -1 -8 -19 -19 -39 -18 -36 -17 -81 4 -165 10 -42 -16 -24 -113 78 -65
67 -102 115 -113 145 -20 51 -25 53 62 -18z m-212 -68 c75 -38 241 -214 241
-255 0 -7 -20 -18 -44 -24 -24 -6 -68 -24 -98 -40 l-55 -29 -42 64 c-23 34
-68 87 -101 117 l-60 54 31 44 c40 56 70 89 81 89 5 0 26 -9 47 -20z m-133
-272 c40 -43 69 -87 79 -117 6 -19 -1 -32 -43 -75 -27 -28 -69 -76 -92 -106
-24 -30 -46 -54 -51 -53 -4 1 -33 20 -64 42 -31 22 -62 42 -68 44 -15 5 2 45
86 204 l71 132 25 -19 c14 -10 40 -33 57 -52z m-229 -395 c30 -20 57 -42 60
-50 3 -8 -9 -44 -27 -81 -18 -37 -50 -112 -71 -167 -21 -55 -41 -100 -46 -100
-21 0 -103 28 -103 36 0 61 106 399 125 399 4 0 31 -16 62 -37z m-142 -487
c19 -8 35 -21 35 -28 0 -7 -9 -58 -19 -113 -11 -55 -23 -140 -26 -188 l-7 -88
-47 3 -46 3 3 65 c3 67 28 284 38 333 6 31 20 33 69 13z m-205 -295 c0 -10 -3
-45 -6 -79 l-7 -61 -63 -22 c-76 -27 -127 -67 -154 -120 -20 -38 -26 -74 -12
-67 4 2 51 25 105 51 190 93 366 103 552 30 39 -15 92 -40 119 -56 27 -15 50
-26 53 -23 2 2 -1 22 -7 44 -19 74 -95 127 -228 160 l-65 16 6 69 c3 38 8 71
10 73 8 9 316 -37 412 -60 223 -55 493 -167 692 -287 311 -188 614 -491 802
-802 174 -288 296 -638 330 -947 24 -217 26 -199 -34 -318 -171 -341 -485
-631 -916 -846 -389 -194 -767 -292 -1239 -321 -58 -4 -125 -8 -150 -10 -52
-4 -373 19 -494 35 -345 46 -654 140 -965 296 -434 216 -752 511 -916 849
l-53 110 8 105 c33 387 142 719 351 1065 272 452 682 788 1207 991 135 52 300
97 437 118 200 31 225 32 225 7z m-1733 -57 c243 -74 513 -165 513 -172 -1 -4
-47 -40 -103 -79 -267 -190 -512 -455 -684 -742 -35 -57 -63 -99 -63 -94 0 25
71 573 90 688 40 252 81 445 95 445 2 0 70 -20 152 -46z m3968 -5 c33 -113 87
-443 135 -833 17 -137 29 -250 27 -252 -2 -3 -29 37 -60 88 -166 278 -395 527
-674 735 -62 46 -113 87 -113 92 0 11 620 217 662 220 4 1 14 -22 23 -50z
m-4329 -2728 c39 -47 116 -129 172 -183 95 -89 102 -99 102 -135 0 -141 80
-519 152 -717 22 -61 42 -120 45 -131 9 -32 -113 121 -197 246 -137 207 -265
482 -325 704 -27 99 -65 301 -64 339 0 19 2 18 22 -8 12 -16 54 -68 93 -115z
m4630 77 c-32 -277 -162 -641 -327 -915 -57 -94 -212 -305 -249 -338 l-21 -19
21 54 c44 108 81 227 115 365 34 139 75 386 75 457 0 33 11 47 138 175 76 76
162 171 192 211 29 39 55 72 58 72 2 0 1 -28 -2 -62z m-4044 -570 c199 -118
420 -215 656 -287 74 -23 135 -41 138 -41 2 0 4 -30 4 -67 0 -293 80 -652 205
-920 32 -68 40 -93 29 -93 -28 0 -270 93 -379 145 -123 59 -300 163 -378 223
-41 31 -65 62 -114 149 -107 187 -194 404 -249 613 -24 90 -64 314 -64 354 0
18 1 18 28 0 15 -10 71 -44 124 -76z m3483 -36 c-44 -290 -147 -587 -290 -842
-31 -55 -68 -114 -83 -132 -74 -87 -432 -281 -671 -363 -74 -25 -136 -44 -138
-42 -2 2 17 46 41 98 126 270 206 628 206 922 0 37 2 67 4 67 3 0 64 18 138
41 250 76 484 181 698 313 58 35 107 60 108 55 2 -5 -4 -57 -13 -117z m-2432
-346 c196 -38 351 -50 622 -50 271 0 426 12 622 50 41 8 81 14 89 14 33 0 6
-293 -48 -510 -51 -205 -118 -372 -214 -531 l-34 -57 -98 -11 c-292 -34 -340
-34 -592 -2 -113 15 -144 22 -155 37 -32 43 -136 256 -168 344 -72 199 -127
484 -127 656 0 85 -7 81 103 60z m-736 -871 c45 -27 82 -54 83 -59 0 -4 -38
-110 -84 -235 -273 -737 -464 -1423 -537 -1927 -12 -82 -22 -150 -24 -152 -1
-1 -33 11 -71 27 -152 64 -422 133 -581 147 -40 4 -73 11 -73 17 0 22 115 295
199 475 181 384 507 975 836 1517 125 207 153 248 164 243 3 -2 43 -25 88 -53z
m2950 -159 c336 -552 669 -1156 854 -1548 85 -180 199 -453 199 -475 0 -6 -28
-13 -62 -17 -172 -19 -451 -92 -594 -156 -37 -17 -68 -29 -69 -28 -1 2 -12 71
-24 155 -72 516 -272 1229 -558 1992 -51 137 -62 176 -52 182 8 4 48 30 89 57
53 35 79 46 88 39 6 -5 65 -96 129 -201z m-2423 -95 c200 -69 351 -101 645
-137 l44 -6 -211 -211 c-117 -117 -212 -217 -212 -222 0 -5 72 -82 159 -170
l160 -160 -19 -95 c-29 -138 -30 -141 -41 -135 -5 4 -100 187 -210 408 -222
444 -265 512 -387 609 -66 52 -221 138 -250 138 -21 0 -22 19 -3 64 l20 45 95
-44 c52 -24 146 -62 210 -84z m1991 73 c9 -25 16 -46 14 -48 -2 -2 -43 -21
-91 -44 -47 -23 -119 -68 -160 -100 -122 -97 -165 -165 -387 -609 -110 -221
-205 -404 -210 -408 -11 -6 -12 -3 -41 135 l-19 95 160 160 c87 88 159 165
159 170 0 5 -95 105 -210 220 l-210 211 115 12 c237 25 547 110 755 206 52 24
98 45 101 45 4 1 14 -20 24 -45z m-2259 -185 c34 -16 88 -49 120 -74 119 -91
143 -130 406 -653 l244 -487 -83 -425 c-67 -348 -80 -427 -69 -438 7 -7 120
-100 252 -206 l239 -193 248 200 c136 110 249 203 252 207 2 3 -33 197 -79
431 l-82 424 244 487 c259 516 288 562 397 646 66 51 109 76 172 101 l51 20
47 -127 c209 -571 390 -1206 464 -1627 52 -299 66 -605 36 -779 -70 -398 -566
-689 -1335 -783 -202 -25 -648 -25 -850 0 -651 80 -1123 308 -1281 619 -51
102 -69 205 -69 407 0 365 90 833 281 1461 61 199 170 528 235 703 54 147 44
142 160 86z m1335 -245 c115 -115 209 -212 209 -216 0 -7 -367 -378 -417 -421
-20 -17 -24 -14 -219 180 -109 109 -208 209 -218 221 l-20 23 213 213 c118
118 220 213 228 212 8 -1 108 -97 224 -212z m-226 -794 c6 0 47 36 91 80 73
74 80 78 86 57 12 -38 221 -1128 217 -1131 -2 -1 -87 -69 -189 -151 -102 -81
-190 -152 -195 -156 -7 -5 -80 47 -181 130 -94 75 -183 147 -199 159 l-27 22
107 552 c58 304 109 564 112 576 5 22 12 17 86 -57 45 -45 86 -81 92 -81z
m-2495 -906 c172 -27 404 -95 523 -155 l37 -19 0 -145 0 -144 -66 29 c-166 75
-438 142 -659 162 -71 6 -131 12 -133 14 -2 1 20 65 48 143 l52 140 51 -6 c29
-2 95 -11 147 -19z m5221 -119 c27 -71 49 -133 49 -136 0 -3 -55 -11 -123 -18
-224 -21 -494 -89 -662 -166 l-75 -34 0 144 0 145 48 24 c170 86 522 178 661
173 l54 -2 48 -130z m-5241 -270 c189 -31 404 -97 540 -165 l55 -28 36 -103
c20 -57 39 -111 43 -120 5 -11 -19 -42 -81 -106 -128 -132 -240 -183 -403
-183 -247 0 -454 160 -525 405 -14 47 -16 82 -12 170 3 60 9 121 13 134 l7 24
116 -6 c64 -4 159 -14 211 -22z m5344 3 c4 -13 10 -73 13 -133 4 -88 2 -123
-12 -170 -28 -98 -73 -175 -144 -246 -107 -107 -231 -159 -381 -159 -163 0
-275 51 -403 183 -62 64 -86 95 -81 106 4 9 22 59 40 111 32 92 34 96 81 122
187 107 556 200 814 206 61 2 67 0 73 -20z m-3964 -939 c147 -56 459 -127 655
-149 55 -6 115 -13 133 -16 l32 -5 0 -395 0 -395 -52 39 c-166 123 -336 179
-573 189 -119 4 -155 2 -245 -17 -58 -12 -135 -34 -172 -50 -38 -15 -68 -25
-68 -20 0 4 16 68 35 141 20 74 52 197 71 274 54 211 106 409 111 418 6 10 12
9 73 -14z m2360 -119 c20 -74 44 -164 52 -200 9 -36 39 -155 68 -265 29 -110
54 -210 57 -222 5 -22 4 -22 -63 7 -38 16 -116 38 -174 50 -90 19 -126 21
-245 17 -237 -10 -407 -66 -572 -189 l-53 -39 0 395 0 395 33 5 c17 3 77 10
132 16 193 22 555 105 666 154 19 8 40 14 48 13 9 -1 27 -48 51 -137z m-2054
-771 c153 -21 321 -98 416 -191 93 -92 95 -96 102 -194 3 -49 9 -122 12 -162
6 -70 5 -77 -30 -147 -66 -133 -198 -230 -396 -291 -77 -24 -100 -27 -245 -27
-145 0 -168 3 -245 27 -196 60 -330 158 -395 288 -48 96 -48 153 1 279 20 51
55 132 79 180 38 75 51 91 99 123 65 43 182 91 268 110 78 17 231 20 334 5z
m1964 -4 c93 -20 208 -66 276 -111 48 -32 61 -48 99 -123 24 -48 59 -129 79
-180 49 -126 49 -183 1 -279 -65 -130 -199 -228 -395 -288 -77 -24 -100 -27
-245 -27 -145 0 -168 3 -245 27 -198 61 -330 158 -396 291 -35 70 -36 77 -30
147 3 40 9 113 12 162 7 99 9 102 103 194 91 90 262 170 406 191 98 14 258 12
335 -4z"/>
<path d="M6461 10294 c-43 -30 -84 -151 -113 -329 -20 -126 -17 -505 6 -639
19 -114 53 -230 81 -272 60 -91 134 -26 178 156 33 137 41 227 41 450 0 223
-8 313 -41 450 -29 120 -76 200 -118 200 -6 0 -21 -7 -34 -16z"/>
<path d="M8431 10294 c-43 -30 -84 -151 -113 -329 -20 -126 -17 -505 6 -639
19 -114 53 -230 81 -272 60 -91 134 -26 178 156 33 137 41 227 41 450 0 223
-8 313 -41 450 -29 120 -76 200 -118 200 -6 0 -21 -7 -34 -16z"/>
<path d="M4839 5151 c-17 -18 -29 -40 -29 -56 0 -35 50 -85 85 -85 16 0 38 12
56 29 17 18 29 40 29 56 0 35 -50 85 -85 85 -16 0 -38 -12 -56 -29z m85 -43
c8 -14 7 -21 -6 -34 -30 -30 -75 9 -48 42 16 18 39 15 54 -8z"/>
<path d="M10059 5151 c-17 -18 -29 -40 -29 -56 0 -35 50 -85 85 -85 35 0 85
50 85 85 0 16 -12 38 -29 56 -18 17 -40 29 -56 29 -16 0 -38 -12 -56 -29z m85
-43 c8 -14 7 -21 -6 -34 -30 -30 -75 9 -48 42 16 18 39 15 54 -8z"/>
</g>
</svg>
